<?xml version="1.0" encoding="UTF-8" standalone="no"?>
<svg
   xmlns:dc="http://purl.org/dc/elements/1.1/"
   xmlns:cc="http://creativecommons.org/ns#"
   xmlns:rdf="http://www.w3.org/1999/02/22-rdf-syntax-ns#"
   xmlns:svg="http://www.w3.org/2000/svg"
   xmlns="http://www.w3.org/2000/svg"
   xmlns:sodipodi="http://sodipodi.sourceforge.net/DTD/sodipodi-0.dtd"
   xmlns:inkscape="http://www.inkscape.org/namespaces/inkscape"
   width="131.0078mm"
   height="138.63834mm"
   viewBox="0 0 131.0078 138.63834"
   version="1.1"
   id="svg8"
   inkscape:version="1.0.1 (3bc2e813f5, 2020-09-07)"
   sodipodi:docname="gopher-sitting.svg">
  <defs
     id="defs2" />
  <sodipodi:namedview
     id="base"
     pagecolor="#ffffff"
     bordercolor="#666666"
     borderopacity="1.0"
     inkscape:pageopacity="0.0"
     inkscape:pageshadow="2"
     inkscape:zoom="0.175"
     inkscape:cx="367.16834"
     inkscape:cy="1470.2963"
     inkscape:document-units="mm"
     inkscape:current-layer="layer1"
     inkscape:document-rotation="0"
     showgrid="false"
     inkscape:window-width="1428"
     inkscape:window-height="1016"
     inkscape:window-x="196"
     inkscape:window-y="60"
     inkscape:window-maximized="0" />
  <metadata
     id="metadata5">
    <rdf:RDF>
      <cc:Work
         rdf:about="">
        <dc:format>image/svg+xml</dc:format>
        <dc:type
           rdf:resource="http://purl.org/dc/dcmitype/StillImage" />
        <dc:title></dc:title>
      </cc:Work>
    </rdf:RDF>
  </metadata>
  <g
     inkscape:label="Layer 1"
     inkscape:groupmode="layer"
     id="layer1"
     transform="translate(-21.767708,-50.496421)">
    <g
       id="g853"
       style="fill:#74d1fa;fill-opacity:1;stroke:#000000;stroke-width:2;stroke-miterlimit:4;stroke-dasharray:none;stroke-opacity:1"
       transform="translate(-31.299702,-17.617897)">
      <path
         style="fill:#74d1fa;fill-opacity:1;stroke:#000000;stroke-width:2;stroke-linecap:butt;stroke-linejoin:miter;stroke-miterlimit:4;stroke-dasharray:none;stroke-opacity:1"
         d="m 113.6717,157.16845 c 0,0 -16.126445,-3.29655 -22.879912,-6.8411 -6.935142,-3.6399 -10.173608,-9.89055 -12.310182,-25.1545 -2.207555,-15.77106 3.715883,-33.925148 3.715883,-33.925148 0,0 0.548045,-1.265933 5.239401,-6.151925 4.691354,-4.885994 17.00143,-9.119507 17.00143,-9.119507 0,0 4.22772,-1.00148 6.24129,-1.467956 2.01357,-0.466474 10.3798,-0.983758 12.22459,-1.013468 0.0234,-0.141672 29.424,-2.963064 41.55403,11.677335 5.36091,6.470381 9.9718,15.118589 13.00327,26.803439 2.79764,10.78353 4.16177,24.20473 5.56836,39.7002 0.60557,6.67114 -5.16416,15.19285 -8.8074,20.85191 -2.3231,3.60848 -9.36034,14.65653 -9.36034,14.65653 0,0 -6.42839,9.21565 -25.5384,14.67281 -19.11002,5.45717 -53.436403,-2.11217 -62.768357,-7.20448 -9.331955,-5.09231 -11.386785,-10.94745 -11.360211,-19.17995 0.02657,-8.2325 5.539092,-21.32629 22.691469,-27.22861"
         id="path847"
         sodipodi:nodetypes="cscscsscsssscsssc" />
    </g>
    <path
       style="fill:#ffffff;fill-opacity:1;stroke:#000000;stroke-width:2;stroke-linecap:butt;stroke-linejoin:miter;stroke-miterlimit:4;stroke-dasharray:none;stroke-opacity:1"
       d="m 46.903592,74.560422 c -4.444836,1.179036 -10.915179,5.994802 -12.94602,10.304381 -2.030841,4.30958 -3.284839,10.69351 -1.56342,13.43678 1.721422,2.743277 8.412499,7.931367 12.194024,8.090607 3.781526,0.15923 9.475179,-1.41426 12.398105,-6.09699 2.922923,-4.682737 4.186211,-13.235457 1.598059,-18.142298 -2.588154,-4.906846 -8.063676,-7.302012 -9.545626,-7.482672 -1.48195,-0.18066 -2.135122,-0.109811 -2.135122,-0.109811 z"
       id="path855"
       sodipodi:nodetypes="ssssssscs" />
    <path
       style="fill:#ffffff;fill-opacity:1;stroke:#000000;stroke-width:2;stroke-linecap:butt;stroke-linejoin:miter;stroke-miterlimit:4;stroke-dasharray:none;stroke-opacity:1"
       d="m 110.54991,76.843704 c -9.59057,1.701245 -11.742752,1.315805 -17.340502,8.608669 -5.59775,7.29287 -4.70042,16.876317 -2.51171,20.952517 2.1887,4.0762 6.53328,10.17273 11.474952,10.78841 4.94167,0.61569 15.57619,-0.18142 21.23613,-4.87415 5.65994,-4.69273 6.52449,-17.299167 5.3055,-21.672457 -1.21899,-4.37329 -4.68322,-13.701717 -18.16437,-13.802989 z"
       id="path872"
       sodipodi:nodetypes="csssssc" />
    <path
       style="fill:#d3bdc0;fill-opacity:1;stroke:#000000;stroke-width:2;stroke-linecap:butt;stroke-linejoin:miter;stroke-miterlimit:4;stroke-dasharray:none;stroke-opacity:1"
       d="m 71.105008,106.27307 c -2.559322,-0.73075 -3.120673,-1.51253 -4.706575,-0.82255 -1.585899,0.68999 -4.17495,2.98563 -4.03838,5.25662 0.13657,2.27099 1.731346,4.37823 3.47417,4.83174 1.742823,0.45351 3.418615,-0.38151 4.911235,-0.41289 1.49261,-0.0314 3.78345,0.84725 5.32285,0.74222 1.5394,-0.10503 4.70142,-3.50708 4.81014,-5.60282 0.10873,-2.09575 -2.43147,-4.98989 -4.13876,-5.11684 -1.70729,-0.12695 -2.82882,1.0857 -5.63468,1.12452 z"
       id="path874"
       sodipodi:nodetypes="csssssssc" />
    <path
       style="fill:#9d96a8;fill-opacity:1;stroke:#000000;stroke-width:1.6;stroke-linecap:butt;stroke-linejoin:miter;stroke-miterlimit:4;stroke-dasharray:none;stroke-opacity:1"
       d="m 66.559334,105.25114 c -0.91295,-1.60333 -0.346307,-6.037667 4.079074,-6.145047 4.42538,-0.10737 6.35078,3.658347 6.14914,5.229667 -0.20164,1.57134 -0.0199,0.79138 -0.0199,0.79138 0,0 -0.93671,-0.15636 -1.96996,0.25378 -1.03325,0.41014 -2.35416,1.07761 -3.69267,0.89215 -1.33851,-0.18547 -4.545669,-1.02193 -4.545669,-1.02193 z"
       id="path893" />
    <path
       style="fill:#d3bdc0;fill-opacity:1;stroke:#000000;stroke-width:2;stroke-linecap:butt;stroke-linejoin:miter;stroke-miterlimit:4;stroke-dasharray:none;stroke-opacity:1"
       d="m 120.29644,143.91452 c 0,0 -12.16837,8.27289 -8.2828,12.69286 3.88558,4.41996 12.46046,-4.58112 15.26223,-7.38663"
       id="path895" />
    <path
       style="fill:#d3bdc0;fill-opacity:1;stroke:#000000;stroke-width:2;stroke-linecap:butt;stroke-linejoin:miter;stroke-miterlimit:4;stroke-dasharray:none;stroke-opacity:1"
       d="m 51.336371,126.81012 c 0,0 -13.338035,2.02015 -12.723376,7.20685 0.275305,2.32312 3.609406,3.34313 4.793231,3.24655 0,0 9.707509,-6.13811 13.083722,-6.21022 0.831045,-0.0178 -5.153577,-4.24318 -5.153577,-4.24318 z"
       id="path897"
       sodipodi:nodetypes="cscsc" />
    <path
       style="fill:#d3bdc0;fill-opacity:1;stroke:#000000;stroke-width:2;stroke-linecap:butt;stroke-linejoin:miter;stroke-miterlimit:4;stroke-dasharray:none;stroke-opacity:1"
       d="m 33.966618,161.74649 c -2.501434,-0.53661 -9.58203,-3.26936 -10.994395,1.15083 -1.412361,4.42019 4.646041,7.49286 7.788762,7.84716 3.142723,0.35429 6.970966,0.28948 6.970966,0.28948 z"
       id="path899" />
    <path
       style="fill:#d3bdc0;fill-opacity:1;stroke:#000000;stroke-width:2;stroke-linecap:butt;stroke-linejoin:miter;stroke-miterlimit:4;stroke-dasharray:none;stroke-opacity:1"
       d="m 77.714558,174.41443 c -5.58906,1.66068 -12.489716,4.66702 -13.094805,7.4727 -0.600327,2.7836 -1.070006,5.19355 2.306352,5.96626 3.043943,0.69663 9.224263,0.68331 14.742963,-6.27689"
       id="path901"
       sodipodi:nodetypes="cssc" />
    <path
       style="fill:#000000;fill-opacity:1;stroke:none;stroke-width:0.264583px;stroke-linecap:butt;stroke-linejoin:miter;stroke-opacity:1"
       d="m 119.85125,90.243673 c -1.59437,0.47612 -3.95913,2.17122 -4.22417,3.09137 -0.26504,0.92015 -1.65871,3.49089 -0.51621,6.977137 1.14251,3.48624 4.61382,4.24369 6.61538,3.90516 2.00156,-0.33852 3.78251,-3.21217 3.84088,-5.577367 0.0584,-2.3652 -0.28818,-4.96255 -1.22351,-6.16928 -0.93534,-1.20674 -2.60148,-2.10879 -4.49237,-2.22702 z"
       id="path903" />
    <path
       style="fill:#000000;fill-opacity:1;stroke:none;stroke-width:0;stroke-linecap:butt;stroke-linejoin:miter;stroke-miterlimit:4;stroke-dasharray:none;stroke-opacity:1"
       d="m 32.767191,84.544443 c -1.061638,0.43229 -3.664262,1.94931 -2.929925,5.28698 0.734336,3.33767 2.672374,4.33517 3.820735,4.54835 1.148357,0.21318 3.085516,-0.84124 4.056111,-3.2235 0.970597,-2.38227 0.571044,-5.27872 -1.172711,-6.20708 -1.743755,-0.92837 -2.582109,-0.62195 -3.77421,-0.40475 z"
       id="path905"
       sodipodi:nodetypes="cssssc" />
    <path
       style="fill:#74d1fa;fill-opacity:1;stroke:#000000;stroke-width:2;stroke-linecap:butt;stroke-linejoin:miter;stroke-miterlimit:4;stroke-dasharray:none;stroke-opacity:1"
       d="m 130.95699,72.007179 c 5.15094,-5.096885 10.38013,-7.357697 13.8354,-4.808024 3.45528,2.549671 8.56511,11.325122 -6.52356,18.374948"
       id="path907" />
    <path
       id="path909"
       style="fill:#74d1fa;fill-opacity:1;stroke:#000000;stroke-width:2;stroke-linecap:butt;stroke-linejoin:miter;stroke-miterlimit:4;stroke-dasharray:none;stroke-opacity:1"
       d="m 82.946368,55.701022 c 0.0293,-1.278728 1.22912,-2.659435 2.5663,-3.56587 0.98153,-0.653054 2.46824,-0.849668 3.81808,-0.344916 1.26066,0.630579 2.41736,1.721622 2.76525,3.166289"
       sodipodi:nodetypes="cccc" />
    <ellipse
       style="fill:#000000;fill-opacity:1;stroke:none;stroke-width:2;stroke-miterlimit:4;stroke-dasharray:none;stroke-opacity:1"
       id="path918"
       transform="rotate(-39.654194)"
       ry="1.7218401"
       rx="4.0628595"
       cy="148.15518"
       cx="58.779518" />
    <path
       style="fill:#ffffff;fill-opacity:1;stroke:#000000;stroke-width:1.6;stroke-linecap:butt;stroke-linejoin:miter;stroke-miterlimit:4;stroke-dasharray:none;stroke-opacity:1"
       d="m 71.794828,115.59693 3.61843,0.1626 c 0.16776,0.0186 0.66238,7.26492 -1.97259,6.6757 -1.78064,-0.39818 -1.64514,-6.85773 -1.64584,-6.8383 z"
       id="path876-6"
       sodipodi:nodetypes="ccscc" />
    <path
       style="fill:#ffffff;fill-opacity:1;stroke:#000000;stroke-width:1.6;stroke-linecap:butt;stroke-linejoin:miter;stroke-miterlimit:4;stroke-dasharray:none;stroke-opacity:1"
       d="m 67.980219,115.6264 4.280249,9e-5 c 0.0383,0.68755 0.73914,6.60517 -1.94249,6.63155 -2.116258,0.0208 -2.290986,-6.07968 -2.290986,-6.07968 z"
       id="path876"
       sodipodi:nodetypes="ccscc" />
    <circle
       style="fill:#fffffe;fill-opacity:1;stroke:none;stroke-width:2;stroke-miterlimit:4;stroke-dasharray:none;stroke-opacity:1"
       id="path924"
       cx="118.03053"
       cy="96.478584"
       r="1.0905498" />
    <circle
       style="fill:#fffffe;fill-opacity:1;stroke:none;stroke-width:2;stroke-miterlimit:4;stroke-dasharray:none;stroke-opacity:1"
       id="path924-7"
       cx="32.617622"
       cy="88.62439"
       r="1.0905498" />
  </g>
</svg>
